<?xml version="1.0" encoding="UTF-8" standalone="no"?>
<!-- Created with Inkscape (http://www.inkscape.org/) -->

<svg
   width="512"
   height="512"
   viewBox="0 0 512 512"
   version="1.1"
   id="svg5"
   inkscape:version="1.1.1 (3bf5ae0d25, 2021-09-20)"
   sodipodi:docname="icon.svg"
   xmlns:inkscape="http://www.inkscape.org/namespaces/inkscape"
   xmlns:sodipodi="http://sodipodi.sourceforge.net/DTD/sodipodi-0.dtd"
   xmlns="http://www.w3.org/2000/svg"
   xmlns:svg="http://www.w3.org/2000/svg">
  <sodipodi:namedview
     id="namedview7"
     pagecolor="#505050"
     bordercolor="#eeeeee"
     borderopacity="1"
     inkscape:pageshadow="0"
     inkscape:pageopacity="0"
     inkscape:pagecheckerboard="0"
     inkscape:document-units="px"
     showgrid="true"
     inkscape:zoom="1.2029102"
     inkscape:cx="218.22078"
     inkscape:cy="288.05143"
     inkscape:window-width="1918"
     inkscape:window-height="1038"
     inkscape:window-x="1920"
     inkscape:window-y="40"
     inkscape:window-maximized="1"
     inkscape:current-layer="layer1">
    <inkscape:grid
       type="xygrid"
       id="grid6931" />
  </sodipodi:namedview>
  <defs
     id="defs2" />
  <g
     inkscape:label="Layer 1"
     inkscape:groupmode="layer"
     id="layer1">
    <path
       id="path11627"
       style="fill:#ffffff"
       d="M 255 0 A 255 255 0 0 0 0 255 A 255 255 0 0 0 255 510 A 255 255 0 0 0 510 255 A 255 255 0 0 0 255 0 z M 356.30664 132.88086 C 372.99403 132.88086 387.46382 135.2741 399.7168 140.05859 C 412.08647 144.7264 423.2904 151.49446 433.32617 160.36328 L 415.4707 180.14258 C 406.83527 172.44071 397.55775 166.89783 387.63867 163.51367 C 377.71959 160.01282 367.62659 158.26172 357.35742 158.26172 C 348.60529 158.26172 340.55296 159.60508 333.20117 162.28906 C 325.96608 164.85635 320.13168 168.76435 315.69727 174.01562 C 311.37955 179.15021 309.2207 185.74492 309.2207 193.79688 C 309.2207 200.68188 311.08802 206.6325 314.82227 211.65039 C 318.55651 216.66828 324.85774 221.27749 333.72656 225.47852 C 342.59539 229.56284 354.67193 233.88053 369.95898 238.43164 C 382.44535 242.04919 393.99989 246.60127 404.61914 252.08594 C 415.35508 257.45391 423.99047 264.80502 430.52539 274.14062 C 437.06031 283.35953 440.32617 295.67047 440.32617 311.07422 C 440.32617 324.84423 436.88501 337.09804 430 347.83398 C 423.11499 358.45323 413.13625 366.79709 400.06641 372.86523 C 386.99656 378.81668 371.06915 381.79297 352.28125 381.79297 C 334.6603 381.79297 318.67185 379.10821 304.31836 373.74023 C 290.08156 368.37226 277.88684 360.78676 267.73438 350.98438 L 285.76367 330.67969 C 294.16572 338.49826 303.79385 344.7404 314.64648 349.4082 C 325.49912 353.95931 338.21781 356.23633 352.80469 356.23633 C 362.60707 356.23633 371.76837 354.66053 380.28711 351.50977 C 388.80585 348.2423 395.69013 343.34156 400.94141 336.80664 C 406.19268 330.15502 408.81836 321.75208 408.81836 311.59961 C 408.81836 303.78104 407.30165 297.1292 404.26758 291.64453 C 401.23351 286.15986 395.86594 281.31821 388.16406 277.11719 C 380.46219 272.79947 369.72705 268.598 355.95703 264.51367 C 340.08651 259.84587 326.31599 254.59452 314.64648 248.75977 C 303.09367 242.80832 294.10768 235.51434 287.68945 226.87891 C 281.38792 218.24347 278.23828 207.56546 278.23828 194.8457 C 278.23828 182.82611 281.56323 172.15006 288.21484 162.81445 C 294.86646 153.47885 304.02776 146.18487 315.69727 140.93359 C 327.48347 135.56562 341.01959 132.88086 356.30664 132.88086 z M 76.238281 136.73242 L 135.57812 136.73242 C 146.19737 136.73242 156.52477 137.72517 166.56055 139.70898 C 176.71302 141.57611 185.81523 144.84196 193.86719 149.50977 C 202.03584 154.06087 208.57146 160.24589 213.47266 168.06445 C 218.37385 175.88302 220.82422 185.68646 220.82422 197.47266 C 220.82422 207.85852 218.66537 216.6692 214.34766 223.9043 C 210.14663 231.02269 204.60376 236.74088 197.71875 241.05859 C 190.95044 245.37631 183.71554 248.40973 176.01367 250.16016 C 184.99919 251.5605 193.69171 254.30239 202.09375 258.38672 C 210.61249 262.35435 217.61494 268.42314 223.09961 276.5918 C 228.58428 284.64376 231.32617 295.43798 231.32617 308.97461 C 231.32617 322.04445 228.7005 333.01399 223.44922 341.88281 C 218.31464 350.75164 211.37127 357.81122 202.61914 363.0625 C 193.98371 368.31378 184.29844 372.10555 173.5625 374.43945 C 162.94325 376.65666 152.08994 377.76563 141.00391 377.76562 L 76.238281 377.76562 L 76.238281 136.73242 z M 106.52148 161.23828 L 106.52148 239.30664 L 145.38086 239.30664 C 159.61765 239.30664 170.5281 236.157 178.11328 229.85547 C 185.81515 223.43724 189.66602 213.16698 189.66602 199.04688 C 189.66602 185.39355 185.40741 175.70829 176.88867 169.99023 C 168.48663 164.15548 156.99118 161.23828 142.4043 161.23828 L 106.52148 161.23828 z M 106.52148 264.33789 L 106.52148 352.73438 L 146.25586 352.73438 C 152.20731 352.73438 158.2761 352.15133 164.46094 350.98438 C 170.64577 349.81742 176.36396 347.71766 181.61523 344.68359 C 186.98321 341.64952 191.24181 337.38896 194.39258 331.9043 C 197.66004 326.30293 199.29297 319.01091 199.29297 310.02539 C 199.29297 297.88911 196.90168 288.5525 192.11719 282.01758 C 187.44939 275.36596 181.20529 270.75674 173.38672 268.18945 C 165.56815 265.62216 156.99185 264.33789 147.65625 264.33789 L 106.52148 264.33789 z " />
  </g>
</svg>
